# xmcd
#
# Track frame offsets: 
#        150
#        2463
#        32750
#        48542
#        62516
#        82497
#        141515
#        173434
#
# Disc length: 2767 seconds
#
# Revision: 0
# Processed by: cddbd v1.5.2PL0 Copyright (c) Steve Scherf et al.
# Submitted via: ExactAudioCopy v1.3
#
DISCID=650acd08
DTITLE=Eric Clapton and Steve Winwood - Crossroads Guitar Festival 2010
DYEAR=2010
DGENRE=Blues
TTITLE0=Introduction
TTITLE1=Had To Cry Today
TTITLE2=Low Down
TTITLE3=Glad >
TTITLE4=Well Alright
TTITLE5=Voodoo Chile
TTITLE6=Cocaine
TTITLE7=Dear Mr. Fantasy
EXTD=
EXTT0=
EXTT1=
EXTT2=
EXTT3=
EXTT4=
EXTT5=
EXTT6=
EXTT7=
PLAYORDER=
